<svg width="36" height="36" viewBox="0 0 36 36" fill="none" xmlns="http://www.w3.org/2000/svg">
<circle cx="18" cy="18" r="18" fill="#191919"/>
<g clip-path="url(#clip0_225_6)">
<path d="M26.7442 19.5431C28.1373 18.9525 29.0762 17.7397 28.9951 16.1648C28.9726 15.7274 28.8757 15.2947 28.7144 14.8888C28.5655 14.5141 28.3255 14.2004 28.1547 13.8401C27.8033 13.0989 27.642 12.2764 27.3506 11.5112C26.097 8.21941 21.9864 7.221 19.0159 8.60556C17.6829 9.22686 16.6538 10.3387 15.996 11.6583C17.0152 11.3019 18.1691 11.5095 19.007 12.1975C18.9741 12.2433 18.942 12.2894 18.9114 12.3361C17.5129 11.293 15.4717 11.7788 14.6611 13.3316C13.8776 14.8326 14.5627 16.755 16.106 17.4054C17.0409 17.7994 18.1363 17.6579 18.9437 17.0381C18.9785 17.081 19.0146 17.1229 19.0515 17.1639C18.1114 17.9646 16.7574 18.1395 15.6516 17.5969C16.0522 18.2483 16.6138 18.7838 17.2541 19.1875C16.78 20.0602 16.4583 21.0433 16.4356 22.0461C16.4149 22.9576 16.4634 23.9421 16.788 24.8019C15.9639 24.7816 15.0195 24.6235 14.4404 23.9672C13.8933 23.3472 13.7883 22.4403 13.7896 21.6416C13.7911 20.6568 14.0055 19.7138 14.1355 18.7445C14.2649 17.7794 14.1813 16.7691 13.7754 15.878C12.9586 14.0851 10.7586 13.0314 8.92657 13.875C7.1356 14.6996 6.26925 17.1666 7.76216 18.7066C8.3699 19.3335 9.29497 19.6654 10.1422 19.4078C10.936 19.1664 11.5693 18.4385 11.65 17.5905C11.7305 16.744 11.1584 15.8568 10.3165 15.6828C9.88968 15.5946 9.47833 15.9205 9.50771 16.3764C9.52052 16.5751 9.6244 16.7626 9.78542 16.8768C9.96415 17.0036 10.1914 16.9956 10.2997 17.2174C10.5066 17.6412 10.0409 18.0936 9.65937 18.1548C9.19975 18.2286 8.72978 17.8973 8.49859 17.5144C7.96207 16.626 8.58532 15.5195 9.42374 15.1102C10.229 14.717 11.1964 14.9497 11.87 15.5068C12.4531 15.9892 12.7721 16.711 12.8563 17.4602C12.9617 18.3979 12.6808 19.3232 12.5693 20.2478C12.4579 21.1711 12.4143 22.1262 12.6035 23.0424C12.7785 23.8892 13.1773 24.678 13.8482 25.2268C14.5182 25.7749 15.3657 26.0221 16.2104 26.1044C16.7401 26.156 17.2743 26.1459 17.804 26.1017C18.0502 26.2562 18.3383 26.3751 18.6737 26.4567C18.7937 26.8519 19.1543 27.1275 19.5683 27.1275H27.9678C29.0058 27.1275 29.0125 25.8497 28.8832 25.1003C28.7491 24.3222 28.355 23.6025 27.7009 23.1578C27.696 21.7726 27.3062 20.6419 26.7442 19.5431ZM18.3702 15.8381C18.1243 16.0985 17.7794 16.2616 17.3971 16.2616C16.6528 16.2616 16.0472 15.6461 16.0472 14.8896C16.0472 14.1331 16.6528 13.5176 17.3971 13.5176C17.7655 13.5176 18.0995 13.6687 18.3433 13.9126C18.3006 14.2166 18.2795 14.5536 18.2795 14.9356C18.2795 15.2728 18.3111 15.571 18.3702 15.8381ZM21.4726 15.9318C21.6063 15.2351 22.084 14.6283 22.3823 13.9956C22.6436 13.4413 22.8104 12.8322 23.1585 12.3247C23.7888 11.4056 24.8609 10.8551 25.9635 10.9048C26.5147 11.6729 26.7096 12.603 27.0118 13.4861C27.1447 13.8742 27.2889 14.259 27.5067 14.6068C27.7639 15.0175 27.9586 15.4471 28.0306 15.9326L27.8017 15.858C27.4608 15.7183 27.2429 16.2508 27.4674 16.479L27.9082 16.927C27.9327 16.9519 27.9603 16.9714 27.9889 16.9883C27.6015 18.5303 25.7975 18.9809 24.4436 19.1182C22.87 19.0148 21.1315 17.7097 21.4726 15.9318ZM25.9793 26.0326H19.6918H19.6909H19.6892C19.6677 25.8128 19.6411 25.6113 19.7776 25.4277C19.9283 25.2248 20.1799 25.0926 20.4 24.9856C21.0721 24.6589 21.8256 24.4845 22.5569 24.3619C23.3084 24.2358 24.1762 24.104 24.9163 24.3481C25.6215 24.5806 26.0928 25.2647 25.9793 26.0326ZM26.2671 25.7357C26.1982 24.7025 25.4421 24.0695 24.4627 23.9607C25.0952 23.9133 25.7898 23.9132 26.3105 24.3378C26.7855 24.725 26.9986 25.4293 26.9138 26.0326H26.2622C26.2738 25.9337 26.2738 25.8349 26.2671 25.7357ZM27.0897 25.0209C26.8871 24.3787 26.3882 23.9243 25.7519 23.7501C26.3726 23.7329 27.0098 23.8576 27.4246 24.3677C27.7815 24.8066 27.9246 25.4726 27.8493 26.0326H27.1966C27.2356 25.6981 27.1907 25.3407 27.0897 25.0209ZM26.96 23.0415C26.96 23.2425 26.9436 23.4463 26.9061 23.6439C26.5454 23.4943 26.156 23.4519 25.7693 23.465C25.4627 22.3678 25.623 21.1432 26.2352 20.1832C26.6426 21.0669 26.96 22.0562 26.96 23.0415ZM24.9079 14.8475C24.8896 14.2431 25.2172 13.7424 25.6397 13.7292C26.0621 13.716 26.4195 14.1952 26.4378 14.7996C26.4561 15.404 26.1285 15.9047 25.706 15.9179C25.2836 15.9312 24.9262 15.4519 24.9079 14.8475Z" fill="#753F8C"/>
</g>
<defs>
<clipPath id="clip0_225_6">
<rect width="22" height="19.1304" fill="white" transform="translate(7 8)"/>
</clipPath>
</defs>
</svg>
